<?xml version="1.0" encoding="utf-8"?>
<!-- Generator: Adobe Illustrator 16.0.4, SVG Export Plug-In . SVG Version: 6.00 Build 0)  -->
<!DOCTYPE svg PUBLIC "-//W3C//DTD SVG 1.1//EN" "http://www.w3.org/Graphics/SVG/1.1/DTD/svg11.dtd">
<svg version="1.1" id="Layer_1" xmlns="http://www.w3.org/2000/svg" xmlns:xlink="http://www.w3.org/1999/xlink" x="0px" y="0px"
	 width="960px" height="560px" viewBox="0 0 960 560" enable-background="new 0 0 960 560" xml:space="preserve">
<rect display="none" fill-rule="evenodd" clip-rule="evenodd" width="960" height="560"/>
<g id="_x38_qWBbt_1_">
	<g>
		<path fill-rule="evenodd" clip-rule="evenodd" fill="#333333" d="M662.993,503.982c-4.025-0.932-8.088-1.729-12.07-2.814
			c-33.662-9.172-55.584-40.613-52.636-75.412c3.058-36.092,28.592-62.383,64.257-65.855c18.326-1.785,35.853,0.674,51.728,10.928
			c2.815,1.818,4.097,3.838,3.911,7.279c-0.291,5.402-0.077,10.834-0.077,17.111c-2.145-1.477-3.447-2.404-4.782-3.285
			c-18.292-12.074-38.116-16.764-59.427-10.543c-23.087,6.74-37.954,29.857-35.694,53.932c2.425,25.838,19.796,44.598,44.453,47.9
			c18.218,2.439,34.608-2.324,49.495-12.818c1.628-1.148,3.242-2.314,4.876-3.455c0.092-0.062,0.307,0.051,1.033,0.195
			c0,6.619,0.185,13.377-0.15,20.107c-0.07,1.406-1.83,3.037-3.201,4.02c-9.124,6.535-19.489,9.916-30.481,11.629
			c-1.433,0.223-2.823,0.715-4.233,1.082C674.326,503.982,668.66,503.982,662.993,503.982z"/>
		<path fill-rule="evenodd" clip-rule="evenodd" fill="#333333" d="M800.993,501.982c-22.444,0-44.889,0-67.795,0
			c0-47.363,0-94.322,0-142c22.644,0,45.219,0,67.795,0c0,6.668,0,13.334,0,20c-15.932,0-31.864,0-47.841,0c0,13.768,0,26.805,0,40
			c16.225,0,32.033,0,47.841,0c0,6.668,0,13.334,0,20c-15.91,0-31.819,0-47.799,0c0,14.336,0,28,0,42c16.238,0,32.019,0,47.799,0
			C800.993,488.65,800.993,495.316,800.993,501.982z"/>
		<path fill-rule="evenodd" clip-rule="evenodd" fill="#E6E6E6" d="M663.324,59.104c8.1,0,18.634-0.083,26.426-0.083
			c0,0,1.088,2.593,1.942,4.756c13.944,36.878,27.826,73.78,41.728,110.674c20.881,55.419,41.766,110.836,62.645,166.256
			c0.569,1.512,1.086,3.043,2.051,5.752c-2.882-1.668-4.889-2.629-6.678-3.898c-11.95-8.479-25.694-12.424-39.716-15.49
			c-3.644-0.797-5.313-2.539-6.423-5.859c-2.687-8.045-5.746-15.965-8.489-23.994c-0.876-2.562-2.138-3.625-4.998-3.617
			c-36.664,0.096-73.328,0.096-109.992-0.002c-2.865-0.006-4.062,1.092-5.02,3.611c-4.846,12.752-9.953,25.404-14.754,38.172
			c-1.178,3.133-2.795,4.557-6.209,5.314c-11.189,2.484-22.241,5.586-33.372,8.346c-2.321,0.576-4.753,0.709-8.492,1.236
			C590.71,252.458,626.991,155.849,663.324,59.104z M720.975,255.232c-14.719-39.169-29.17-77.627-44.147-117.485
			c-15.036,40.045-29.479,78.514-44.111,117.485C662.365,255.232,691.116,255.232,720.975,255.232z"/>
		<path fill-rule="evenodd" clip-rule="evenodd" fill="#E6E6E6" d="M390.735,59.373c47.205,0,93.801,0,140.749,0
			c0,13.62,0,27.191,0,41.312c-32.686,0-65.418,0-98.561,0c0,27.596,0,54.651,0,82.22c32.701,0,65.452,0,98.556,0
			c0,14.078,0,27.649,0,41.771c-32.671,0-65.402,0-98.55,0c0,28.93,0,57.318,0,86.22c32.683,0,65.434,0,98.545,0
			c0,11.08,0,21.66,0,32.293c-8.805-1.85-17.628-4.051-26.572-5.516c-22.583-3.693-44.875-1.875-66.692,4.875
			c-5.291,1.637-9.761,1.129-14.867-0.889c-9.11-3.598-18.531-6.484-27.972-9.133c-3.579-1.004-4.741-2.395-4.711-6.051
			c0.163-19.666,0.076-39.332,0.076-58.998c0-66.998,0-133.995,0-200.993C390.735,64.197,390.735,61.91,390.735,59.373z"/>
		<path fill-rule="evenodd" clip-rule="evenodd" fill="#E6E6E6" d="M351.425,82.934c-9.194,10.858-17.906,21.146-26.932,31.805
			c-8.174-7.322-17.462-12.215-28.116-14.281c-10.41-2.018-20.842-2.717-31.137,0.503c-12.495,3.909-20.667,12.248-23.012,25.166
			c-2.34,12.891,0.038,25.2,11.266,33.135c8.871,6.27,18.741,11.447,28.768,15.691c20.18,8.542,39.811,17.674,56.243,32.669
			c37.132,33.882,32.705,88.404,10.132,116.292c-2.542,3.141-5.285,4.852-9.433,5.535c-12.643,2.08-25.391,4.031-37.71,7.434
			c-14.203,3.922-27.082,1.533-39.364-5.438c-22.745-12.91-46.622-22.094-74.555-23.439c9.925-9.424,18.882-17.926,28.288-26.855
			c1.249,1.666,2.297,3.08,3.365,4.48c16.786,22.023,46.305,32.527,71.528,25.455c20.88-5.855,34.219-22.971,33.265-43.068
			c-0.604-12.719-6.795-22.771-15.957-31.174c-10.21-9.363-22.424-15.387-34.922-21.017c-12.273-5.529-24.826-10.667-36.439-17.387
			c-31.693-18.341-41.754-47.057-35.17-81.946c6.025-31.928,32.787-54.875,66.486-58.53c28.975-3.143,55.595,3.009,78.942,21.123
			C348.38,80.188,349.689,81.431,351.425,82.934z"/>
		<path fill-rule="evenodd" clip-rule="evenodd" fill="#333333" d="M489.955,397.371c0,34.619,0,69.24,0,104.174
			c-6.583,0-12.838,0-19.471,0c0-46.846,0-93.748,0-141.416c5.906,0,12.005-0.211,18.066,0.166c1.333,0.082,2.778,2.086,3.762,3.49
			c22.536,32.205,45.013,64.449,67.509,96.684c0.983,1.408,2.035,2.77,4.135,3.754c0-34.531,0-69.062,0-103.854
			c6.804,0,13.053,0,19.625,0c0,47.018,0,93.918,0,141.465c-5.938,0-11.885,0.211-17.795-0.16c-1.34-0.084-2.815-2.012-3.786-3.398
			c-22.619-32.35-45.177-64.742-67.748-97.123c-1.008-1.447-2.042-2.873-3.063-4.311
			C490.778,397.02,490.366,397.195,489.955,397.371z"/>
		<path fill-rule="evenodd" clip-rule="evenodd" fill="#333333" d="M407.97,379.949c0,13.693,0,26.617,0,40.078
			c15.792,0,31.363,0,47.23,0c0,6.791,0,13.051,0,19.938c-15.77,0-31.322,0-47.163,0c0,14.197,0,27.766,0,41.951
			c15.764,0,31.325,0,47.171,0c0,6.875,0,13.133,0,19.66c-22.476,0-44.692,0-67.16,0c0-47.176,0-94.062,0-141.211
			c22.417,0,44.522,0,67.043,0c0,6.379,0,12.756,0,19.584C439.442,379.949,424.006,379.949,407.97,379.949z"/>
		<path fill-rule="evenodd" clip-rule="evenodd" fill="#333333" d="M259.934,371.664c-4.468,5.256-8.551,10.059-12.946,15.227
			c-7.519-6.174-16.113-8.41-25.576-7.141c-7.429,0.996-12.747,5.566-14.299,12.107c-1.688,7.111,0.543,13.861,6.847,17.918
			c4.576,2.945,9.816,4.836,14.647,7.412c7.317,3.9,15.124,7.207,21.677,12.15c14.813,11.174,19.657,26.613,15.126,44.398
			c-4.354,17.094-16.475,26.197-33.562,28.404c-20.795,2.684-38.44-3.309-52.065-20.785c4.81-4.578,9.448-8.994,14.374-13.682
			c1.395,1.578,2.522,2.943,3.744,4.221c8.738,9.143,19.372,12.756,31.746,10.121c8.014-1.709,13.896-6.512,16.317-14.562
			c2.467-8.203-0.123-15.506-6.457-20.684c-5.33-4.357-11.629-7.598-17.715-10.939c-6.399-3.514-13.413-6.004-19.523-9.93
			c-13.094-8.412-18.346-22.977-14.672-38.418c3.496-14.691,15.294-25.402,30.216-27.463
			C233.257,357.887,247.183,361.24,259.934,371.664z"/>
		<path fill-rule="evenodd" clip-rule="evenodd" fill="#333333" d="M337.08,360.355c0,40.551,0,80.629,0,121.277
			c12.565,0,24.791,0,37.447,0c0,6.916,0,13.275,0,19.938c-18.914,0-37.811,0-57.062,0c0-46.994,0-93.977,0-141.215
			C323.856,360.355,330.101,360.355,337.08,360.355z"/>
		<path fill-rule="evenodd" clip-rule="evenodd" fill="#333333" d="M280.034,360.277c6.757,0,12.879,0,19.35,0
			c0,47.051,0,93.928,0,141.197c-6.325,0-12.685,0-19.35,0C280.034,454.441,280.034,407.568,280.034,360.277z"/>
	</g>
</g>
</svg>
